<?xml version="1.0" encoding="utf-8"?>
<!-- Generator: Adobe Illustrator 16.0.2, SVG Export Plug-In . SVG Version: 6.00 Build 0)  -->
<!DOCTYPE svg PUBLIC "-//W3C//DTD SVG 1.1//EN" "http://www.w3.org/Graphics/SVG/1.1/DTD/svg11.dtd">
<svg version="1.1" id="Layer_1" xmlns="http://www.w3.org/2000/svg" xmlns:xlink="http://www.w3.org/1999/xlink" x="0px" y="0px"
	 width="251px" height="79.557px" viewBox="0 0 251 79.557" enable-background="new 0 0 251 79.557" xml:space="preserve">
<rect x="2.5" y="-227.5" fill="#F7FFE6" width="18.375" height="3.5"/>
<g>
	<rect x="171.896" y="50.432" fill="#F7FFE6" width="17.999" height="17.876"/>
	<polyline fill="#F7FFE6" points="116,67.807 122.75,67.807 122.75,79.557 152,79.557 152,68.307 159.5,68.307 159.5,68.085 
		169.25,68.085 169.25,11.307 133.75,11.307 133.75,0.307 0,0.307 0,68.307 27.5,68.307 27.5,50.307 37,50.307 37,68.307 87,68.307 
			"/>
	<polyline fill="#432135" points="111.833,65.557 126.667,65.557 126.667,75.39 148.5,75.39 148.5,65.557 163.5,65.557 
		163.5,65.335 166.25,65.335 166.25,14.724 130.25,14.724 130.444,3.835 3.167,3.724 3.167,65.224 25.667,65.224 25.667,46.89 
		39.667,46.89 39.667,65.39 90.667,65.39 	"/>
	<polygon fill="#FDEFA7" points="6.833,7.057 6.833,61.224 22,61.224 22,42.39 40,42.39 40,24.89 21.5,24.89 21.5,21.057 40,21.057 
		40,6.974 	"/>
	<polygon fill="#FDEFA7" points="43.333,7.057 43.333,61.057 53.833,61.057 53.833,21.224 57.667,21.224 57.667,7.057 	"/>
	<polygon fill="#A8E55B" points="6.833,35.39 6.833,57.057 22,57.057 22,39.557 40,39.557 40,35.39 	"/>
	<polygon fill="#A8E55B" points="43.333,35.557 43.333,56.224 53.917,56.224 53.792,35.515 	"/>
	<rect x="43.25" y="56.182" fill="#F7FFE6" width="10.5" height="4.875"/>
	<g>
		<polygon fill="#FDEFA7" points="61.333,7.224 61.333,21.224 75.833,21.224 75.833,25.057 57.833,25.057 57.833,61.724 91,61.724 
			91,7.057 		"/>
		<polygon fill="#A8E55B" points="57.875,35.432 57.875,56.099 91.083,56.224 91.083,35.39 		"/>
		<rect x="61.25" y="17.557" fill="#F7FFE6" width="14.5" height="3.625"/>
		<rect x="57.75" y="56.182" fill="#F7FFE6" width="33.25" height="5.375"/>
		<rect x="72.75" y="38.932" fill="#F7FFE6" width="3" height="2.875"/>
		<rect x="72.75" y="41.807" fill="#432135" width="3" height="3.625"/>
	</g>
	<g>
		<polygon fill="#FDEFA7" points="97.583,7.224 97.583,21.224 112.083,21.224 112.083,25.057 94.083,25.057 94.083,61.724 
			127.25,61.724 127.25,7.057 		"/>
		<polygon fill="#A8E55B" points="94.125,35.432 94.125,56.099 127.333,56.224 127.333,35.39 		"/>
		<rect x="97.5" y="17.557" fill="#F7FFE6" width="14.5" height="3.625"/>
		<rect x="94" y="56.182" fill="#F7FFE6" width="33.25" height="5.375"/>
		<rect x="109" y="38.932" fill="#F7FFE6" width="3" height="2.875"/>
		<rect x="109" y="41.807" fill="#432135" width="3" height="3.625"/>
	</g>
	<g>
		<polygon fill="#FDEFA7" points="130.25,18.057 130.25,72.557 145.083,72.557 145.083,61.89 162.917,61.89 162.917,18.224 		"/>
		<polygon fill="#A8E55B" points="130.083,35.557 130.083,66.89 145.083,66.89 145.083,56.89 163,56.89 163,35.64 		"/>
		<rect x="130.25" y="66.932" fill="#F7FFE6" width="14.75" height="5.625"/>
		<rect x="145.125" y="56.932" fill="#F7FFE6" width="17.625" height="4.875"/>
		<rect x="145.125" y="28.557" fill="#F7FFE6" width="3" height="2.875"/>
		<rect x="145.125" y="31.432" fill="#432135" width="3" height="9.875"/>
	</g>
	<rect x="22" y="39.557" fill="#F7FFE6" width="17.875" height="2.875"/>
	<rect x="6.875" y="57.057" fill="#F7FFE6" width="14.875" height="4"/>
	<g>
		<rect x="186.917" y="0.335" fill="#F7FFE6" width="64" height="67.959"/>
		<g>
			<rect x="190.248" y="3.181" fill="#432135" width="57.5" height="61.264"/>
			<g>
				<rect x="193.75" y="7.086" fill="#FDEFA7" width="14" height="14.061"/>
				<rect x="193.75" y="25.038" fill="#FDEFA7" width="14" height="36.784"/>
				<rect x="193.625" y="36.462" fill="#A8E55B" width="14.125" height="21.969"/>
				<rect x="193.688" y="18.008" fill="#F7FFE6" width="14" height="3.013"/>
				<rect x="193.688" y="58.431" fill="#F7FFE6" width="14.125" height="3.265"/>
			</g>
			<g>
				<polygon fill="#FDEFA7" points="211.374,7.532 211.374,61.57 244.249,61.57 244.249,7.337 229.499,7.337 229.499,7.365 
					211.374,7.365 				"/>
				<rect x="211.249" y="36.462" fill="#A8E55B" width="33.125" height="21.969"/>
				<rect x="211.312" y="58.431" fill="#F7FFE6" width="33" height="3.014"/>
				<rect x="226.187" y="33.449" fill="#F7FFE6" width="3.875" height="3.013"/>
				<rect x="226.187" y="36.337" fill="#432135" width="3.875" height="10.043"/>
			</g>
		</g>
	</g>
	<rect x="174.833" y="53.265" fill="#A8E55B" width="12.084" height="12.667"/>
</g>
</svg>
