<?xml version="1.0" encoding="utf-8"?>
<!-- Generator: Adobe Illustrator 16.0.2, SVG Export Plug-In . SVG Version: 6.00 Build 0)  -->
<!DOCTYPE svg PUBLIC "-//W3C//DTD SVG 1.1//EN" "http://www.w3.org/Graphics/SVG/1.1/DTD/svg11.dtd">
<svg version="1.1" id="Layer_1" xmlns="http://www.w3.org/2000/svg" xmlns:xlink="http://www.w3.org/1999/xlink" x="0px" y="0px"
	 width="127.419px" height="357.197px" viewBox="0 0 127.419 357.197" enable-background="new 0 0 127.419 357.197"
	 xml:space="preserve">
<g>
	<rect x="8.089" y="60.864" fill="#543645" width="112.667" height="296.333"/>
	<rect x="12.923" y="65.197" fill="#F9CF21" width="103.666" height="291.667"/>
	<rect x="107.255" y="65.199" fill="#CD6723" width="9.666" height="291.666"/>
	<rect x="97.302" y="65.199" fill="#CD6723" width="5.237" height="291.666"/>
	<rect x="40.972" y="65.199" fill="#F2E22B" width="5.564" height="291.665"/>
	<rect x="12.638" y="65.199" fill="#F2E22B" width="24.898" height="291.665"/>
	<rect x="17.511" y="65.199" fill="#F5F359" width="4.739" height="291.665"/>
	<rect x="4.756" y="1.198" fill="#543645" width="119.667" height="64.666"/>
	<rect x="7.923" y="4.864" fill="#F9CF21" width="113.333" height="56.668"/>
	<rect x="112.589" y="4.865" fill="#CD6723" width="9" height="56.333"/>
	<rect x="102.636" y="4.865" fill="#CD6723" width="5.237" height="56.333"/>
	<rect x="31.639" y="4.865" fill="#F2E22B" width="5.564" height="56.333"/>
	<rect x="8.305" y="4.865" fill="#F2E22B" width="19.231" height="56.333"/>
	<rect x="14.002" y="4.865" fill="#F3F894" width="3.838" height="56.333"/>
	<rect x="7.754" y="4.886" fill="#F5F359" width="0.959" height="56"/>
	<rect x="7.673" y="55.865" fill="#CD6723" width="113.583" height="5.667"/>
	<rect x="13.987" y="4.865" fill="#F2E22B" width="98.535" height="5.999"/>
	<rect x="17.374" y="4.865" fill="#F3F894" width="55.764" height="5.999"/>
	<rect x="79.125" y="4.865" fill="#F3F894" width="5.764" height="5.999"/>
	<rect x="7.708" y="4.865" fill="#F9CF21" width="6.183" height="5.999"/>
	<rect x="112.583" y="4.865" fill="#F9CF21" width="4.849" height="5.999"/>
</g>
</svg>
